<?xml version="1.0" encoding="utf-8"?>
<!-- Generator: Adobe Illustrator 16.0.0, SVG Export Plug-In . SVG Version: 6.00 Build 0)  -->
<!DOCTYPE svg PUBLIC "-//W3C//DTD SVG 1.1//EN" "http://www.w3.org/Graphics/SVG/1.1/DTD/svg11.dtd">
<svg version="1.1" id="圖層_1" xmlns="http://www.w3.org/2000/svg" xmlns:xlink="http://www.w3.org/1999/xlink" x="0px" y="0px"
	 width="25px" height="25px" viewBox="0 0 25 25" enable-background="new 0 0 25 25" xml:space="preserve">
<circle fill="#FFFFFF" cx="12.559" cy="13.745" r="10.711"/>
<path fill="#55A0D9" d="M12.559,25C6.353,25,1.304,19.951,1.304,13.745S6.353,2.49,12.559,2.49c6.207,0,11.255,5.049,11.255,11.255
	S18.766,25,12.559,25z M12.559,3.579c-5.605,0-10.166,4.561-10.166,10.166c0,5.604,4.561,10.167,10.166,10.167
	s10.167-4.563,10.167-10.167C22.727,8.14,18.164,3.579,12.559,3.579z"/>
<g>
	<defs>
		<circle id="SVGID_1_" cx="12.559" cy="13.745" r="7.061"/>
	</defs>
	<clipPath id="SVGID_2_">
		<use xlink:href="#SVGID_1_"  overflow="visible"/>
	</clipPath>
	<circle clip-path="url(#SVGID_2_)" fill="#FFFFFF" cx="12.559" cy="13.746" r="1.124"/>
	<circle clip-path="url(#SVGID_2_)" fill="#4B5B41" cx="12.559" cy="13.745" r="7.061"/>
	<path clip-path="url(#SVGID_2_)" fill="#D9D187" d="M8.473,13.972c-0.459,0.625,0.057,0.629,0.507,0.651
		c0.511,0.007,0.957,0.033,1.733,0.337c0.815,0.258,1.518-0.008,2.146-0.225c0.649-0.216,1.227-0.384,2.333,0.138
		c1.081,0.493,1.55,0.407,1.916,0.19c0.4-0.182,0.702-0.492,2.281,0.344c1.307,1.009,1.276,0.575,0.646-0.025
		c-0.57-0.618-1.741-1.406-1.333-1.517c0.637-0.132-1.104-0.711-2.229-1.054c-1.223-0.357-1.829-0.479-1.191-0.024
		c0.485,0.449-0.168,0.208-0.566-0.04c-0.457-0.25-0.658-0.505-0.587-0.068c-0.051,0.418-0.368,0.349-0.503,0.231
		c-0.18-0.116-0.175-0.279-0.611-0.053c-0.486,0.225-0.941,0.174-1.239,0.11c-0.334-0.06-0.512-0.129-1.299,0.15
		C9,13.678,8.963,13.499,8.473,13.972"/>
	<path clip-path="url(#SVGID_2_)" fill="#D9D187" d="M10.208,8.719c0.671-0.099,1.631-0.531,2.111-0.78
		c0.517-0.25,0.554-0.315,0.234,0.303c-0.113,0.562,0.59,0.301,0.777-0.02c0.309-0.318,0.102-0.697,0.943-0.258
		c1.056,0.354,3.506,1.25,4.438,1.886c1.058,0.635,0.596,1.009-1.262,0.27c-1.844-0.504-2.691-0.25-3.295-0.081
		c-0.579,0.19-0.913,0.296-1.18,0.004c-0.272-0.335-1.153-0.168-1.987,0.117c-0.824,0.258-1.599,0.631-1.447,0.099
		C9.894,9.244,7.694,9.102,10.208,8.719"/>
	<path clip-path="url(#SVGID_2_)" fill="#D9D187" d="M13.481,18.535c0.71,0.949-0.103-0.984,1.396,0.457
		c1.499,1.443,1.296-0.527,2.134,0.247c0.837,0.772,0.481-0.739,2.056,0.211s0.533,0.281,1.625,0.034
		c1.093-0.245,2.312-1.512,0.28-1.758c-2.032-0.246-1.372-1.478-2.591-0.598c-1.219,0.879-0.406-1.091-1.6,0.035
		c-1.192,1.125,0.052-0.388-1.117,0.175c-1.168,0.563-1.294-0.386-1.879,0.177c-0.584,0.563-0.736,0.599-0.406,0.984"/>
	<path clip-path="url(#SVGID_2_)" fill="#8C9557" d="M5.129,9.794c-0.458,0.573,0.029,0.598,0.454,0.637
		c0.482,0.027,0.902,0.069,1.624,0.389c0.761,0.276,1.436,0.053,2.037-0.127c0.625-0.178,1.175-0.313,2.201,0.224
		c1.003,0.51,1.447,0.447,1.802,0.258c0.388-0.155,0.684-0.438,2.143,0.415c1.195,1.007,1.184,0.596,0.612,0.002
		c-0.514-0.607-1.589-1.397-1.199-1.486c0.607-0.099-1.016-0.717-2.064-1.085c-1.142-0.388-1.708-0.524-1.125-0.07
		c0.441,0.443-0.167,0.189-0.534-0.063c-0.42-0.253-0.601-0.503-0.551-0.087c-0.064,0.393-0.363,0.313-0.484,0.198
		C9.877,8.881,9.889,8.727,9.467,8.924C8.999,9.118,8.571,9.05,8.292,8.979C7.978,8.908,7.813,8.835,7.057,9.067
		C5.64,9.539,5.611,9.368,5.129,9.794"/>
	<path clip-path="url(#SVGID_2_)" fill="#8C9557" d="M8.127,17.627c0.871-0.161,0.809-1.593,1.547-0.44
		c0.738,1.151,0.816-1.112,2.311-0.189c1.492,0.922,2.439,2.905,0.672,2.15c-1.765-0.758-2.012,1.328-2.291,0.247
		c-0.279-1.083-1.793,1.047-1.724-0.162C8.712,18.025,6.661,17.896,8.127,17.627"/>
	<path clip-path="url(#SVGID_2_)" fill="#1E2E22" d="M13.689,15.945c0.479-0.116,0.402-0.911,0.85-0.293
		c0.445,0.62,0.42-0.644,1.279-0.174c0.859,0.468,1.447,1.544,0.44,1.176s-1.08,0.802-1.269,0.207
		c-0.189-0.596-0.968,0.637-0.965-0.038C14.027,16.149,12.881,16.139,13.689,15.945"/>
	<path clip-path="url(#SVGID_2_)" fill="#1E2E22" d="M6.167,15.468c0.987-0.235,0.828-1.872,1.744-0.6
		c0.917,1.272,0.866-1.322,2.633-0.36c1.765,0.964,2.971,3.175,0.902,2.419c-2.067-0.756-2.22,1.646-2.606,0.425
		c-0.387-1.221-1.989,1.31-1.983-0.075C6.86,15.888,4.504,15.866,6.167,15.468"/>
	<path clip-path="url(#SVGID_2_)" fill="#1E2E22" d="M8.841,11.776c0.69-0.166,0.579-1.31,1.22-0.42
		c0.641,0.891,0.606-0.925,1.841-0.251c1.236,0.674,2.079,2.221,0.633,1.69c-1.447-0.528-1.555,1.153-1.824,0.298
		c-0.27-0.855-1.391,0.918-1.388-0.053C9.327,12.069,7.679,12.055,8.841,11.776"/>
</g>
</svg>
