<?xml version="1.0" encoding="utf-8"?>
<!-- Generator: Adobe Illustrator 16.0.0, SVG Export Plug-In . SVG Version: 6.00 Build 0)  -->
<!DOCTYPE svg PUBLIC "-//W3C//DTD SVG 1.1//EN" "http://www.w3.org/Graphics/SVG/1.1/DTD/svg11.dtd">
<svg version="1.1" id="圖層_1" xmlns="http://www.w3.org/2000/svg" xmlns:xlink="http://www.w3.org/1999/xlink" x="0px" y="0px"
	 width="331.002px" height="84.166px" viewBox="0 0 331.002 84.166" enable-background="new 0 0 331.002 84.166"
	 xml:space="preserve">
<line opacity="0.8" fill="none" stroke="#727171" stroke-width="1.4942" stroke-linecap="round" stroke-miterlimit="10" enable-background="new    " x1="1.667" y1="69.666" x2="328.892" y2="69.666"/>
<g>
	<path d="M5.677,54.677V5.138h33.42v5.846H12.232v15.341h23.249v5.846H12.232v22.505L5.677,54.677L5.677,54.677z"/>
	<path d="M52.188,54.677V5.138h6.556v49.539H52.188z"/>
	<path d="M73.693,54.677V5.138h6.725l26.02,38.895V5.138h6.286v49.539h-6.725l-26.02-38.928v38.928H73.693z"/>
	<path d="M125.205,30.549c0-8.223,2.208-14.66,6.624-19.312c4.415-4.652,10.115-6.978,17.099-6.978
		c4.573,0,8.695,1.093,12.368,3.278c3.671,2.186,6.471,5.232,8.396,9.141c1.927,3.909,2.89,8.341,2.89,13.297
		c0,5.024-1.015,9.518-3.041,13.483s-4.9,6.967-8.617,9.006c-3.717,2.039-7.728,3.059-12.03,3.059
		c-4.664,0-8.832-1.127-12.503-3.379c-3.671-2.254-6.454-5.328-8.346-9.227C126.152,39.02,125.205,34.897,125.205,30.549z
		 M131.964,30.651c0,5.97,1.605,10.673,4.815,14.108c3.21,3.436,7.237,5.153,12.081,5.153c4.934,0,8.994-1.734,12.182-5.204
		c3.188-3.469,4.781-8.391,4.781-14.767c0-4.032-0.682-7.552-2.044-10.56c-1.363-3.008-3.357-5.339-5.981-6.995
		c-2.624-1.656-5.57-2.484-8.836-2.484c-4.641,0-8.634,1.594-11.979,4.782C133.636,17.872,131.964,23.194,131.964,30.651z"/>
</g>
<g>
	<path d="M202.365,55.784V5.944h6.119v49.84H202.365z"/>
	<path d="M217.834,55.784V5.944h6.119v49.84H217.834z"/>
</g>
</svg>
