<?xml version="1.0" encoding="utf-8"?>
<!-- Generator: Adobe Illustrator 16.0.0, SVG Export Plug-In . SVG Version: 6.00 Build 0)  -->
<!DOCTYPE svg PUBLIC "-//W3C//DTD SVG 1.1//EN" "http://www.w3.org/Graphics/SVG/1.1/DTD/svg11.dtd">
<svg version="1.1" id="圖層_1" xmlns="http://www.w3.org/2000/svg" xmlns:xlink="http://www.w3.org/1999/xlink" x="0px" y="0px"
	 width="174.5px" height="52px" viewBox="0 0 174.5 52" enable-background="new 0 0 174.5 52" xml:space="preserve">
<g>
	<g>
		<defs>
			<rect id="SVGID_1_" x="-2.875" y="3.5" width="240.001" height="49"/>
		</defs>
		<clipPath id="SVGID_2_">
			<use xlink:href="#SVGID_1_"  overflow="visible"/>
		</clipPath>
		<g clip-path="url(#SVGID_2_)">
			<defs>
				<rect id="SVGID_3_" x="-2.875" y="3.5" width="183.5" height="49"/>
			</defs>
			<clipPath id="SVGID_4_">
				<use xlink:href="#SVGID_3_"  overflow="visible"/>
			</clipPath>
			<g opacity="0.8" clip-path="url(#SVGID_4_)" enable-background="new    ">
				<image overflow="visible" width="240" height="49" xlink:href="8CBB848.png"  transform="matrix(1 0 0 1 -2.875 3.5)">
				</image>
			</g>
		</g>
	</g>
	<g>
		<g>
			<g>
				<path fill="#FFFFFF" d="M76.886,8.362c-2.127,0-3.755,1.819-3.755,4.117l0.005,31.203h7.51L80.64,12.121
					C80.64,10.119,78.703,8.362,76.886,8.362"/>
				<path fill="#FFFFFF" d="M92.853,8.004c-2.654,0-4.111,1.797-4.111,5.051l0.006,31.038h8.224l-0.008-31.038
					C96.963,10.036,95.309,8.004,92.853,8.004"/>
				<path fill="#FFFFFF" d="M150.534,8.004H109.65c-3.371,0-5.229,1.755-5.229,4.945v3.287l45.177-0.006
					c5.955,0,9.506,3.728,9.506,9.975c0,5.506-3.604,9.503-8.568,9.503l-46.12-0.005v8.234l47.997-0.01
					c8.137,0,14.445-8.77,14.445-16.316v-2.349C166.855,15.425,159.839,8.004,150.534,8.004"/>
				<path fill="#FFFFFF" d="M48.971,7.906H17.985c-9.455,0-16.319,6.271-16.319,14.912l0.046,16.023
					c0,3.375,1.754,5.234,4.943,5.234h3.288v-0.353C9.931,37.53,9.902,25.767,9.906,25.509c0.335-4.637,1.779-9.378,9.958-9.378
					h27.703c6.09,0,9.084,3.252,9.398,10.225c0.121,2.619,0.083,17.201,0.083,17.349v0.355h8.225v-0.355
					c-0.025-21.144-0.044-21.365-0.044-21.365C64.564,13.302,58.485,7.906,48.971,7.906"/>
			</g>
		</g>
	</g>
</g>
</svg>
