<?xml version="1.0" encoding="utf-8"?>
<!-- Generator: Adobe Illustrator 16.0.0, SVG Export Plug-In . SVG Version: 6.00 Build 0)  -->
<!DOCTYPE svg PUBLIC "-//W3C//DTD SVG 1.1//EN" "http://www.w3.org/Graphics/SVG/1.1/DTD/svg11.dtd">
<svg version="1.1" id="圖層_1" xmlns="http://www.w3.org/2000/svg" xmlns:xlink="http://www.w3.org/1999/xlink" x="0px" y="0px"
	 width="331.002px" height="84.166px" viewBox="0 0 331.002 84.166" enable-background="new 0 0 331.002 84.166"
	 xml:space="preserve">
<line opacity="0.8" fill="none" stroke="#727171" stroke-width="1.4942" stroke-linecap="round" stroke-miterlimit="10" enable-background="new    " x1="1.667" y1="69.666" x2="328.892" y2="69.666"/>
<g>
	<path d="M80.968,27.143c-2.18,0-3.848,1.864-3.848,4.218l0.004,31.972h7.696l-0.007-32.337
		C84.813,28.942,82.828,27.143,80.968,27.143"/>
	<path d="M97.326,26.353c-2.72,0-4.213,1.842-4.213,5.176l0.006,31.804h8.427l-0.008-31.804
		C101.538,28.435,99.843,26.353,97.326,26.353"/>
	<path d="M156.431,26.513h-41.894c-3.453,0-5.358,1.799-5.358,5.066v3.369l46.29-0.007c6.101,0,9.74,3.819,9.74,10.22
		c0,5.644-3.692,9.738-8.778,9.738l-47.258-0.005v8.438l49.18-0.009c8.336,0,14.801-8.986,14.801-16.721v-2.404
		C173.154,34.116,165.963,26.513,156.431,26.513"/>
	<path d="M52.364,26.271h-31.75c-9.688,0-16.721,6.428-16.721,15.28L3.941,57.97c0,3.458,1.797,5.362,5.064,5.362h3.369v-0.359
		c-0.012-6.348-0.042-18.401-0.038-18.665c0.343-4.751,1.823-9.61,10.204-9.61h28.385c6.24,0,9.308,3.333,9.63,10.477
		C60.679,47.856,60.64,62.8,60.64,62.95v0.367h8.428V62.95c-0.025-21.663-0.046-21.891-0.046-21.891
		C68.341,31.8,62.113,26.271,52.364,26.271"/>
</g>
<g>
	<path d="M196.331,53.714l2.195,1.934c-2.229,2.645-5.004,5.025-8.324,7.145l-2.064-2.688
		C191.196,58.401,193.927,56.271,196.331,53.714z M215.042,34.38l1.41,2.557c-3.998,0.808-8.771,1.387-14.32,1.736
		c-0.832,1.42-2.076,2.916-3.736,4.489c2.49-0.108,4.938-0.239,7.34-0.394c1.289-1.157,2.557-2.369,3.803-3.637l2.916,1.408
		c-4.195,4.064-8.324,7.418-12.387,10.061c4.631-0.131,8.531-0.371,11.699-0.721c-0.701-1.223-1.443-2.457-2.229-3.703l2.293-1.408
		c2.402,3.364,4.281,6.259,5.637,8.684l-2.818,1.934c-0.459-1.004-0.982-2.053-1.572-3.146c-2.295,0.285-5.059,0.536-8.291,0.754
		v10.979h-3.311V53.19c-3.342,0.196-7.1,0.371-11.273,0.523l-0.785-2.949c2.074,0,4.041-0.01,5.898-0.032
		c2.555-1.595,5.035-3.397,7.438-5.407c-3.473,0.284-7.318,0.568-11.535,0.852l-0.621-2.687c1.244-0.044,2.467-0.087,3.67-0.132
		c1.791-1.397,3.254-2.904,4.391-4.521c-2.84,0.109-5.832,0.164-8.979,0.164l-0.885-2.688
		C199.104,36.313,207.854,35.669,215.042,34.38z M209.274,54.239c3.125,2.271,5.768,4.533,7.932,6.783l-2.295,2.294
		c-1.813-2.163-4.424-4.511-7.832-7.046L209.274,54.239z"/>
	<path d="M220.909,35.298h16.646v2.916h-8.65c-0.328,1.596-0.668,3.004-1.016,4.228h8.52v2.949c-0.416,3.168-1.082,5.878-2,8.128
		c-0.83,2.031-1.988,3.834-3.473,5.406c-1.572,1.727-4.064,3.528-7.473,5.407l-2.293-2.556c3.801-1.9,6.586-3.933,8.355-6.096
		c-1.092-1.551-2.512-3.189-4.26-4.916l2.064-1.9c1.486,1.42,2.785,2.818,3.9,4.195c0.961-1.967,1.648-4.523,2.064-7.669h-6.424
		c-0.873,2.382-2.348,4.905-4.424,7.57l-2.162-2.688c1.66-2.075,2.904-4.097,3.736-6.063c0.699-1.573,1.289-3.571,1.77-5.997h-4.883
		V35.298z M239.227,36.805h3.211v19.99h-3.211V36.805z M245.356,34.249h3.211v25.986c0,1.268-0.273,2.152-0.82,2.654
		c-0.502,0.547-1.42,0.82-2.752,0.82h-3.965l-0.787-3.475c1.551,0.176,2.83,0.263,3.834,0.263c0.852,0,1.279-0.251,1.279-0.754
		V34.249z"/>
	<path d="M268.655,33.495c0.545,0.721,1.07,1.529,1.572,2.425h12.258v2.425h-5.016c-1.311,1.137-2.752,2.119-4.324,2.949
		c2.359,0.612,4.619,1.257,6.783,1.934l-1.377,2.032h4.064v2.425h-10.094v2.688h8.945v2.589h-8.945v2.294h7.93v2.557h-7.93v2.293
		h10.617v2.688h-25.232v-2.688h11.535v-2.293h-7.57v-2.098c-0.35,0.48-0.732,0.973-1.146,1.475l-2.295-2.064
		c0.982-1.115,1.781-2.195,2.393-3.244c0.545-1.093,1.027-2.404,1.441-3.934l2.688,1.049c-0.152,0.504-0.307,0.962-0.459,1.377
		h4.949v-2.688h-11.273v3.998c0,1.791-0.176,3.682-0.525,5.67c-0.393,2.075-1.07,4.106-2.031,6.095l-2.688-2.294
		c0.854-1.529,1.453-3.113,1.803-4.752c0.24-1.703,0.361-3.277,0.361-4.719V45.26h2.719l-1.049-1.671
		c3.408-0.656,6.271-1.289,8.586-1.901c-2.533-0.611-5.102-1.169-7.701-1.671l1.115-1.672h-4.293V35.92h12.42
		c-0.459-0.677-0.973-1.321-1.541-1.934L268.655,33.495z M260.266,38.345c3.254,0.635,6.379,1.311,9.371,2.032
		c0.152-0.044,0.307-0.099,0.459-0.164c1.443-0.524,2.764-1.147,3.965-1.868H260.266z M269.442,55.255v-2.294h-5.965
		c-0.088,0.218-0.176,0.404-0.262,0.558c-0.24,0.523-0.58,1.103-1.016,1.736H269.442z M262.298,45.26h15.305
		c-2.602-0.874-5.223-1.683-7.865-2.425C267.639,43.665,265.159,44.474,262.298,45.26z"/>
	<path d="M299.264,48.864v15.107h-2.818v-2.064h-6.26v2.064h-2.818V48.864H299.264z M290.186,59.351h6.26v-7.93h-6.26V59.351z
		 M290.809,35.298h21.137v10.879h-21.137V35.298z M308.866,43.358v-5.275h-14.977v5.275H308.866z M314.862,48.864v15.107h-2.785
		v-2.064h-6.914v2.064h-2.818V48.864H314.862z M305.163,59.351h6.914v-7.93h-6.914V59.351z"/>
</g>
</svg>
