<?xml version="1.0" encoding="utf-8"?>
<!-- Generator: Adobe Illustrator 16.0.0, SVG Export Plug-In . SVG Version: 6.00 Build 0)  -->
<!DOCTYPE svg PUBLIC "-//W3C//DTD SVG 1.1//EN" "http://www.w3.org/Graphics/SVG/1.1/DTD/svg11.dtd">
<svg version="1.1" id="圖層_1" xmlns="http://www.w3.org/2000/svg" xmlns:xlink="http://www.w3.org/1999/xlink" x="0px" y="0px"
	 width="297px" height="52px" viewBox="0.125 0 297 52" enable-background="new 0.125 0 297 52" xml:space="preserve">
<g>
	
		<image overflow="visible" opacity="0.8" width="301" height="49" xlink:href="2E1A66.png"  transform="matrix(1 0 0 1 -2.875 3.5)">
	</image>
	<g>
		<g>
			<g>
				<path fill="#FFFFFF" d="M76.886,8.362c-2.127,0-3.755,1.819-3.755,4.117l0.005,31.203h7.51L80.64,12.121
					C80.64,10.119,78.703,8.362,76.886,8.362"/>
				<path fill="#FFFFFF" d="M92.853,8.004c-2.654,0-4.111,1.797-4.111,5.051l0.006,31.038h8.224l-0.008-31.038
					C96.963,10.036,95.309,8.004,92.853,8.004"/>
				<path fill="#FFFFFF" d="M150.534,8.004H109.65c-3.371,0-5.229,1.755-5.229,4.945v3.287l45.177-0.006
					c5.955,0,9.506,3.728,9.506,9.975c0,5.506-3.604,9.503-8.569,9.503l-46.12-0.005v8.234l47.997-0.009
					c8.137,0,14.445-8.77,14.445-16.317v-2.349C166.856,15.425,159.839,8.004,150.534,8.004"/>
				<path fill="#FFFFFF" d="M48.971,7.906H17.985c-9.455,0-16.319,6.272-16.319,14.912l0.046,16.023
					c0,3.375,1.754,5.234,4.943,5.234h3.288v-0.352C9.931,37.53,9.902,25.767,9.906,25.509c0.335-4.637,1.779-9.378,9.958-9.378
					h27.703c6.09,0,9.084,3.252,9.398,10.225c0.121,2.618,0.083,17.201,0.083,17.349v0.356h8.225v-0.356
					c-0.025-21.144-0.044-21.365-0.044-21.365C64.564,13.302,58.485,7.906,48.971,7.906"/>
			</g>
			<g>
				<path fill="#FFFFFF" d="M197.785,27.667h-4.271v14.041c0,0.809-0.181,1.408-0.541,1.8c-0.36,0.391-0.826,0.586-1.397,0.586
					c-0.58,0-1.052-0.197-1.417-0.593c-0.364-0.396-0.547-0.993-0.547-1.793V27.667h-4.271c-0.668,0-1.165-0.146-1.49-0.441
					c-0.325-0.294-0.487-0.683-0.487-1.167c0-0.5,0.169-0.896,0.508-1.186c0.338-0.29,0.828-0.435,1.47-0.435h12.445
					c0.677,0,1.18,0.149,1.51,0.448c0.329,0.299,0.494,0.69,0.494,1.173c0,0.484-0.167,0.873-0.501,1.167
					C198.954,27.521,198.453,27.667,197.785,27.667z"/>
				<path fill="#FFFFFF" d="M212.774,41.576l-0.923-2.426h-7.857l-0.923,2.479c-0.36,0.967-0.668,1.619-0.923,1.958
					c-0.255,0.338-0.673,0.507-1.253,0.507c-0.492,0-0.927-0.18-1.305-0.54s-0.567-0.769-0.567-1.226
					c0-0.264,0.044-0.536,0.132-0.817s0.233-0.673,0.436-1.174l4.943-12.551c0.141-0.359,0.311-0.793,0.508-1.298
					c0.198-0.505,0.409-0.925,0.633-1.259c0.225-0.334,0.519-0.604,0.884-0.811c0.364-0.207,0.814-0.31,1.351-0.31
					c0.545,0,1,0.103,1.365,0.31c0.364,0.207,0.659,0.473,0.883,0.798c0.225,0.325,0.413,0.674,0.567,1.048
					c0.153,0.374,0.349,0.872,0.586,1.496l5.05,12.472c0.396,0.949,0.593,1.64,0.593,2.07c0,0.448-0.187,0.858-0.561,1.232
					c-0.373,0.373-0.823,0.56-1.351,0.56c-0.308,0-0.571-0.055-0.791-0.164c-0.22-0.11-0.404-0.26-0.554-0.448
					c-0.149-0.189-0.31-0.479-0.481-0.87C213.045,42.22,212.897,41.875,212.774,41.576z M205.022,36.211h5.774l-2.914-7.977
					L205.022,36.211z"/>
				<path fill="#FFFFFF" d="M219.986,41.708V26.481c0-0.791,0.18-1.384,0.54-1.779s0.826-0.593,1.397-0.593
					c0.589,0,1.066,0.195,1.431,0.586c0.365,0.391,0.547,0.987,0.547,1.786v15.227c0,0.8-0.182,1.397-0.547,1.793
					c-0.364,0.396-0.842,0.593-1.431,0.593c-0.563,0-1.025-0.199-1.391-0.6C220.169,43.095,219.986,42.499,219.986,41.708z"/>
				<path fill="#FFFFFF" d="M241.963,40.72l-3.125-11.589l-3.164,11.589c-0.246,0.879-0.441,1.509-0.586,1.892
					c-0.146,0.382-0.398,0.725-0.759,1.028c-0.36,0.303-0.839,0.454-1.437,0.454c-0.483,0-0.881-0.09-1.193-0.27
					c-0.312-0.181-0.564-0.436-0.758-0.765c-0.193-0.33-0.352-0.721-0.475-1.174c-0.123-0.452-0.233-0.872-0.33-1.259l-3.217-13.013
					c-0.193-0.755-0.29-1.331-0.29-1.727c0-0.5,0.176-0.922,0.527-1.265s0.787-0.514,1.306-0.514c0.712,0,1.19,0.229,1.437,0.686
					s0.462,1.12,0.646,1.99l2.531,11.285l2.834-10.561c0.211-0.808,0.4-1.423,0.567-1.845c0.167-0.422,0.439-0.787,0.817-1.094
					s0.892-0.461,1.542-0.461c0.659,0,1.171,0.16,1.536,0.481c0.364,0.321,0.617,0.67,0.758,1.048s0.33,1.002,0.567,1.871
					l2.86,10.561l2.531-11.285c0.123-0.588,0.239-1.05,0.35-1.384c0.109-0.334,0.299-0.633,0.566-0.896
					c0.269-0.264,0.657-0.396,1.167-0.396s0.942,0.169,1.299,0.507c0.355,0.338,0.534,0.763,0.534,1.272
					c0,0.361-0.097,0.936-0.29,1.727L247.5,40.627c-0.22,0.879-0.402,1.522-0.548,1.932c-0.145,0.408-0.391,0.767-0.738,1.074
					c-0.347,0.308-0.837,0.461-1.47,0.461c-0.598,0-1.076-0.149-1.437-0.447c-0.36-0.299-0.611-0.636-0.752-1.009
					C242.415,42.264,242.218,41.625,241.963,40.72z"/>
				<path fill="#FFFFFF" d="M265.97,41.576l-0.923-2.426h-7.857l-0.923,2.479c-0.36,0.967-0.668,1.619-0.923,1.958
					c-0.255,0.338-0.673,0.507-1.253,0.507c-0.492,0-0.927-0.18-1.305-0.54s-0.567-0.769-0.567-1.226
					c0-0.264,0.044-0.536,0.132-0.817s0.233-0.673,0.436-1.174l4.943-12.551c0.141-0.359,0.311-0.793,0.508-1.298
					c0.198-0.505,0.409-0.925,0.633-1.259c0.225-0.334,0.519-0.604,0.884-0.811c0.364-0.207,0.814-0.31,1.351-0.31
					c0.545,0,1,0.103,1.365,0.31c0.364,0.207,0.659,0.473,0.883,0.798c0.225,0.325,0.413,0.674,0.567,1.048
					c0.153,0.374,0.349,0.872,0.586,1.496l5.05,12.472c0.396,0.949,0.593,1.64,0.593,2.07c0,0.448-0.187,0.858-0.561,1.232
					c-0.373,0.373-0.823,0.56-1.351,0.56c-0.308,0-0.571-0.055-0.791-0.164c-0.22-0.11-0.404-0.26-0.554-0.448
					c-0.149-0.189-0.31-0.479-0.481-0.87C266.24,42.22,266.093,41.875,265.97,41.576z M258.218,36.211h5.774l-2.914-7.977
					L258.218,36.211z"/>
				<path fill="#FFFFFF" d="M278.124,26.455l7.528,11.391V26.349c0-0.747,0.16-1.307,0.481-1.681c0.32-0.374,0.753-0.56,1.298-0.56
					c0.563,0,1.007,0.187,1.332,0.56s0.487,0.934,0.487,1.681V41.55c0,1.696-0.703,2.544-2.109,2.544
					c-0.352,0-0.668-0.05-0.949-0.151c-0.281-0.101-0.545-0.261-0.791-0.48s-0.475-0.478-0.686-0.771
					c-0.211-0.295-0.422-0.596-0.633-0.903l-7.343-11.259v11.325c0,0.738-0.172,1.296-0.515,1.674s-0.782,0.566-1.318,0.566
					c-0.554,0-0.997-0.19-1.331-0.573c-0.334-0.382-0.501-0.938-0.501-1.667V26.942c0-0.633,0.07-1.129,0.211-1.489
					c0.167-0.396,0.443-0.719,0.83-0.969s0.805-0.375,1.253-0.375c0.352,0,0.652,0.057,0.903,0.171
					c0.25,0.114,0.47,0.268,0.659,0.461c0.188,0.193,0.382,0.444,0.58,0.751C277.709,25.8,277.913,26.121,278.124,26.455z"/>
			</g>
		</g>
	</g>
</g>
</svg>
