<?xml version="1.0" encoding="iso-8859-1"?>
<!-- Generator: Adobe Illustrator 16.0.0, SVG Export Plug-In . SVG Version: 6.00 Build 0)  -->
<!DOCTYPE svg PUBLIC "-//W3C//DTD SVG 1.1//EN" "http://www.w3.org/Graphics/SVG/1.1/DTD/svg11.dtd">
<svg version="1.1" id="&#x5716;&#x5C64;_1" xmlns="http://www.w3.org/2000/svg" xmlns:xlink="http://www.w3.org/1999/xlink" x="0px"
	 y="0px" width="331.001px" height="84.166px" viewBox="0 0 331.001 84.166" style="enable-background:new 0 0 331.001 84.166;"
	 xml:space="preserve">
<g>
	<path d="M123.933,1.728c-4.088,0.3-4.697,2.814-4.697,4.29l0.003,29.679c-0.636,7.299-5.678,11.014-15.335,11.358
		c-10.177-0.345-15.327-4.052-15.745-11.271L88.152,5.903c-0.283-2.475-1.947-3.953-4.835-4.176c-4.091,0.3-4.7,2.814-4.7,4.29
		v27.308c0,13.716,8.494,20.676,25.249,20.676c16.289,0,24.669-6.952,24.912-20.676l-0.011-27.422
		C128.484,3.429,126.823,1.95,123.933,1.728"/>
	<path d="M163.827,1.726c-16.288,0-24.668,6.952-24.907,20.676l0.005,27.422c0.281,2.469,1.945,3.952,4.838,4.178
		c4.088-0.3,4.698-2.816,4.698-4.295l-0.006-29.676c0.636-7.299,5.678-11.011,15.338-11.358
		c10.171,0.348,15.324,4.052,15.743,11.271l0.008,29.881c0.283,2.469,1.947,3.952,4.679,4.172l0.079,0.006h0.077
		c4.088-0.3,4.699-2.816,4.699-4.295V22.401C189.078,8.683,180.58,1.726,163.827,1.726"/>
	<path d="M225.01,1.747c-17.16,1.007-26.926,8.522-26.926,26.456c0,18.168,9.532,25.141,26.926,25.779
		c17.401-0.639,26.932-7.611,26.932-25.779C251.941,10.27,242.181,2.754,225.01,1.747 M225.01,47.03
		c-11.512-0.472-17.33-6.658-17.759-18.861c0.429-12.097,6.247-18.281,17.759-18.922c11.52,0.641,17.332,6.825,17.768,18.922
		C242.342,40.372,236.529,46.559,225.01,47.03"/>
</g>
<line style="opacity:0.8;fill:none;stroke:#727171;stroke-width:1.4942;stroke-linecap:round;stroke-miterlimit:10;" x1="1.667" y1="69.666" x2="328.892" y2="69.666"/>
</svg>
