<?xml version="1.0" encoding="utf-8"?>
<!-- Generator: Adobe Illustrator 16.0.0, SVG Export Plug-In . SVG Version: 6.00 Build 0)  -->
<!DOCTYPE svg PUBLIC "-//W3C//DTD SVG 1.1//EN" "http://www.w3.org/Graphics/SVG/1.1/DTD/svg11.dtd">
<svg version="1.1" id="圖層_1" xmlns="http://www.w3.org/2000/svg" xmlns:xlink="http://www.w3.org/1999/xlink" x="0px" y="0px"
	 width="331px" height="84.166px" viewBox="0 0 331 84.166" enable-background="new 0 0 331 84.166" xml:space="preserve">
<line opacity="0.8" fill="none" stroke="#727171" stroke-width="1.4942" stroke-linecap="round" stroke-miterlimit="10" enable-background="new    " x1="1.667" y1="69.666" x2="328.891" y2="69.666"/>
<g>
	<path d="M103.766,1.743c-4.079,0.299-4.688,2.808-4.688,4.28l0.003,29.612c-0.634,7.283-5.664,10.99-15.301,11.334
		c-10.153-0.345-15.292-4.044-15.709-11.247L68.064,5.908c-0.282-2.469-1.943-3.944-4.825-4.166
		c-4.082,0.299-4.689,2.808-4.689,4.28v27.248c0,13.686,8.475,20.63,25.193,20.63c16.253,0,24.614-6.937,24.857-20.63l-0.011-27.362
		C108.307,3.439,106.648,1.964,103.766,1.743"/>
	<path d="M143.57,1.74c-16.251,0-24.613,6.938-24.851,20.63l0.004,27.361c0.28,2.464,1.94,3.944,4.828,4.169
		c4.079-0.3,4.688-2.81,4.688-4.285l-0.006-29.612c0.634-7.282,5.666-10.986,15.304-11.333c10.148,0.347,15.291,4.043,15.708,11.247
		l0.008,29.814c0.282,2.464,1.943,3.944,4.669,4.164L164,53.9h0.077c4.078-0.3,4.688-2.81,4.688-4.285V22.37
		C168.766,8.682,160.287,1.74,143.57,1.74"/>
	<path d="M204.62,1.761c-17.123,1.004-26.868,8.503-26.868,26.397c0,18.128,9.511,25.085,26.868,25.722
		c17.36-0.638,26.869-7.594,26.869-25.722C231.489,10.266,221.75,2.766,204.62,1.761 M204.62,46.944
		c-11.488-0.473-17.294-6.644-17.723-18.82c0.429-12.07,6.234-18.24,17.723-18.879c11.492,0.64,17.294,6.81,17.727,18.879
		C221.914,40.301,216.112,46.476,204.62,46.944"/>
	<g>
		<path d="M249.832,48.028V7.834c0-1.855,0.333-3.258,0.996-4.208c0.664-0.951,1.563-1.427,2.691-1.427
			c1.13,0,2.039,0.47,2.732,1.409c0.693,0.939,1.038,2.349,1.038,4.227v40.194c0,1.878-0.35,3.287-1.052,4.226
			c-0.7,0.938-1.607,1.408-2.719,1.408c-1.091,0-1.979-0.487-2.662-1.459C250.173,51.23,249.832,49.838,249.832,48.028z"/>
		<path d="M264.994,48.028V7.834c0-1.855,0.331-3.258,0.998-4.208c0.664-0.951,1.56-1.427,2.689-1.427
			c1.129,0,2.038,0.47,2.731,1.409c0.692,0.939,1.038,2.349,1.038,4.227v40.194c0,1.878-0.351,3.287-1.052,4.226
			s-1.607,1.408-2.718,1.408c-1.093,0-1.98-0.487-2.664-1.459C265.335,51.23,264.994,49.838,264.994,48.028z"/>
	</g>
</g>
</svg>
