<?xml version="1.0" encoding="iso-8859-1"?>
<!-- Generator: Adobe Illustrator 16.0.0, SVG Export Plug-In . SVG Version: 6.00 Build 0)  -->
<!DOCTYPE svg PUBLIC "-//W3C//DTD SVG 1.1//EN" "http://www.w3.org/Graphics/SVG/1.1/DTD/svg11.dtd">
<svg version="1.1" id="&#x5716;&#x5C64;_1" xmlns="http://www.w3.org/2000/svg" xmlns:xlink="http://www.w3.org/1999/xlink" x="0px"
	 y="0px" width="331.001px" height="84.166px" viewBox="0 0 331.001 84.166" style="enable-background:new 0 0 331.001 84.166;"
	 xml:space="preserve">
<path d="M47.431,1.728c-4.088,0.3-4.698,2.814-4.698,4.29l0.003,29.679C42.1,42.995,37.058,46.71,27.401,47.055
	c-10.176-0.345-15.327-4.052-15.745-11.271L11.65,5.903C11.367,3.429,9.703,1.95,6.815,1.728c-4.091,0.3-4.7,2.814-4.7,4.29v27.308
	c0,13.716,8.494,20.676,25.249,20.676c16.289,0,24.669-6.952,24.913-20.676L52.265,5.903C51.982,3.429,50.321,1.95,47.431,1.728"/>
<path d="M87.325,1.726c-16.288,0-24.668,6.952-24.907,20.676l0.005,27.422c0.281,2.469,1.945,3.952,4.838,4.178
	c4.088-0.3,4.698-2.816,4.698-4.295L71.953,20.03c0.636-7.299,5.678-11.011,15.338-11.358c10.171,0.348,15.324,4.052,15.743,11.271
	l0.008,29.881c0.283,2.469,1.947,3.952,4.679,4.172l0.079,0.006h0.077c4.088-0.3,4.699-2.816,4.699-4.295V22.401
	C112.576,8.683,104.078,1.726,87.325,1.726"/>
<path d="M148.508,1.747c-17.16,1.007-26.926,8.522-26.926,26.456c0,18.168,9.532,25.141,26.926,25.779
	c17.401-0.639,26.932-7.611,26.932-25.779C175.439,10.27,165.679,2.754,148.508,1.747 M148.508,47.03
	c-11.512-0.472-17.33-6.658-17.759-18.861c0.429-12.097,6.247-18.281,17.759-18.922c11.52,0.641,17.332,6.825,17.768,18.922
	C165.84,40.372,160.027,46.559,148.508,47.03"/>
<line style="opacity:0.8;fill:none;stroke:#727171;stroke-width:1.4942;stroke-linecap:round;stroke-miterlimit:10;" x1="1.667" y1="69.666" x2="328.892" y2="69.666"/>
</svg>
