<?xml version="1.0" encoding="utf-8"?>
<!-- Generator: Adobe Illustrator 16.0.0, SVG Export Plug-In . SVG Version: 6.00 Build 0)  -->
<!DOCTYPE svg PUBLIC "-//W3C//DTD SVG 1.1//EN" "http://www.w3.org/Graphics/SVG/1.1/DTD/svg11.dtd">
<svg version="1.1" id="圖層_1" xmlns="http://www.w3.org/2000/svg" xmlns:xlink="http://www.w3.org/1999/xlink" x="0px" y="0px"
	 width="300.191px" height="140.417px" viewBox="0 0 300.191 140.417" enable-background="new 0 0 300.191 140.417"
	 xml:space="preserve">
<g>
	<defs>
		<rect id="SVGID_1_" width="300.191" height="140.417"/>
	</defs>
	<clipPath id="SVGID_2_">
		<use xlink:href="#SVGID_1_"  overflow="visible"/>
	</clipPath>
	<g clip-path="url(#SVGID_2_)">
		<defs>
			<rect id="SVGID_3_" width="300.191" height="140.417"/>
		</defs>
		<clipPath id="SVGID_4_">
			<use xlink:href="#SVGID_3_"  overflow="visible"/>
		</clipPath>
		<polygon clip-path="url(#SVGID_4_)" fill="none" stroke="#063A7A" stroke-miterlimit="10" points="120.441,53.75 151.691,29.417 
			269.191,29.417 299.691,48.75 299.691,97.25 267.441,119.75 211.724,127.166 195.858,139.917 159.326,139.917 120.441,113.25 		
			"/>
	</g>
	<g clip-path="url(#SVGID_2_)">
		<defs>
			<rect id="SVGID_5_" x="162.691" width="137" height="25"/>
		</defs>
		<clipPath id="SVGID_6_">
			<use xlink:href="#SVGID_5_"  overflow="visible"/>
		</clipPath>
		<defs>
			<filter id="Adobe_OpacityMaskFilter" filterUnits="userSpaceOnUse" x="162.691" y="0" width="137" height="25">
				<feColorMatrix  type="matrix" values="1 0 0 0 0  0 1 0 0 0  0 0 1 0 0  0 0 0 1 0"/>
			</filter>
		</defs>
		<mask maskUnits="userSpaceOnUse" x="162.691" y="0" width="137" height="25" id="SVGID_7_">
			<g filter="url(#Adobe_OpacityMaskFilter)">
				
					<linearGradient id="SVGID_8_" gradientUnits="userSpaceOnUse" x1="-4.882813e-004" y1="140.417" x2="0.9995" y2="140.417" gradientTransform="matrix(137 0 0 137 162.75 -19224.5859)">
					<stop  offset="0" style="stop-color:#FFFFFF"/>
					<stop  offset="1" style="stop-color:#000000"/>
				</linearGradient>
				<rect x="162.691" clip-path="url(#SVGID_6_)" fill="url(#SVGID_8_)" width="137" height="25"/>
			</g>
		</mask>
		
			<linearGradient id="SVGID_9_" gradientUnits="userSpaceOnUse" x1="-4.882813e-004" y1="140.417" x2="0.9995" y2="140.417" gradientTransform="matrix(137 0 0 137 162.75 -19224.5859)">
			<stop  offset="0" style="stop-color:#9FA0A0"/>
			<stop  offset="1" style="stop-color:#9FA0A0"/>
		</linearGradient>
		<rect x="162.691" clip-path="url(#SVGID_6_)" mask="url(#SVGID_7_)" fill="url(#SVGID_9_)" width="137" height="25"/>
	</g>
	<g clip-path="url(#SVGID_2_)">
		<defs>
			<rect id="SVGID_10_" width="137" height="25"/>
		</defs>
		<clipPath id="SVGID_11_">
			<use xlink:href="#SVGID_10_"  overflow="visible"/>
		</clipPath>
		<defs>
			<filter id="Adobe_OpacityMaskFilter_1_" filterUnits="userSpaceOnUse" x="0" y="0" width="137" height="25">
				<feColorMatrix  type="matrix" values="1 0 0 0 0  0 1 0 0 0  0 0 1 0 0  0 0 0 1 0"/>
			</filter>
		</defs>
		<mask maskUnits="userSpaceOnUse" x="0" y="0" width="137" height="25" id="SVGID_12_">
			<g filter="url(#Adobe_OpacityMaskFilter_1_)">
				
					<linearGradient id="SVGID_13_" gradientUnits="userSpaceOnUse" x1="0" y1="140.417" x2="1" y2="140.417" gradientTransform="matrix(-137 0 0 137 137 -19224.5859)">
					<stop  offset="0" style="stop-color:#FFFFFF"/>
					<stop  offset="1" style="stop-color:#000000"/>
				</linearGradient>
				<rect clip-path="url(#SVGID_11_)" fill="url(#SVGID_13_)" width="137" height="25"/>
			</g>
		</mask>
		
			<linearGradient id="SVGID_14_" gradientUnits="userSpaceOnUse" x1="0" y1="140.417" x2="1" y2="140.417" gradientTransform="matrix(-137 0 0 137 137 -19224.5859)">
			<stop  offset="0" style="stop-color:#9FA0A0"/>
			<stop  offset="1" style="stop-color:#9FA0A0"/>
		</linearGradient>
		<rect clip-path="url(#SVGID_11_)" mask="url(#SVGID_12_)" fill="url(#SVGID_14_)" width="137" height="25"/>
	</g>
	<polygon clip-path="url(#SVGID_2_)" fill="#9FA0A0" points="196.927,93.841 258.858,86.584 272.191,77.75 272.191,67.75 
		261.524,58.75 202.358,58.75 188.858,72.167 188.858,83.834 	"/>
	<polygon clip-path="url(#SVGID_2_)" fill="none" stroke="#063A7A" stroke-miterlimit="10" points="147.191,69.917 160.188,58.75 
		261.524,58.75 272.191,67.75 272.191,77.75 258.858,86.584 194.858,94.084 184.941,104.688 163.066,104.688 147.191,93.417 	"/>
	
		<line clip-path="url(#SVGID_2_)" fill="none" stroke="#063A7A" stroke-miterlimit="10" x1="181.441" y1="104.688" x2="181.441" y2="58.75"/>
	
		<line clip-path="url(#SVGID_2_)" fill="none" stroke="#063A7A" stroke-width="0.5" stroke-miterlimit="10" x1="263.154" y1="7.177" x2="262.98" y2="7.907"/>
	<g clip-path="url(#SVGID_2_)">
		<defs>
			<rect id="SVGID_15_" width="300.191" height="140.417"/>
		</defs>
		<clipPath id="SVGID_16_">
			<use xlink:href="#SVGID_15_"  overflow="visible"/>
		</clipPath>
		
			<path clip-path="url(#SVGID_16_)" fill="none" stroke="#063A7A" stroke-width="0.5" stroke-miterlimit="10" stroke-dasharray="1.509,1.509" d="
			M262.632,9.375l-19.677,82.643c-0.639,2.688-3.336,4.346-6.021,3.706c-2.687-0.639-4.345-3.335-3.706-6.021l19.851-83.377"/>
		
			<line clip-path="url(#SVGID_16_)" fill="none" stroke="#063A7A" stroke-width="0.5" stroke-miterlimit="10" x1="253.253" y1="5.591" x2="253.427" y2="4.861"/>
		
			<circle clip-path="url(#SVGID_16_)" fill="none" stroke="#063A7A" stroke-width="0.5" stroke-miterlimit="10" cx="258.291" cy="6.02" r="5"/>
		
			<line clip-path="url(#SVGID_16_)" fill="none" stroke="#063A7A" stroke-width="0.5" stroke-miterlimit="10" x1="204.577" y1="6.908" x2="204.737" y2="7.641"/>
		
			<path clip-path="url(#SVGID_16_)" fill="none" stroke="#063A7A" stroke-width="0.5" stroke-miterlimit="10" stroke-dasharray="1.509,1.509" d="
			M205.06,9.114l18.146,82.993c0.59,2.698,3.255,4.406,5.953,3.817c2.696-0.59,4.405-3.255,3.815-5.953l-18.306-83.73"/>
		
			<line clip-path="url(#SVGID_16_)" fill="none" stroke="#063A7A" stroke-width="0.5" stroke-miterlimit="10" x1="214.507" y1="5.504" x2="214.347" y2="4.771"/>
		
			<circle clip-path="url(#SVGID_16_)" fill="none" stroke="#063A7A" stroke-width="0.5" stroke-miterlimit="10" cx="209.461" cy="5.84" r="5.001"/>
		
			<path clip-path="url(#SVGID_16_)" fill="none" stroke="#063A7A" stroke-width="0.5" stroke-miterlimit="10" stroke-dasharray="1.5,1.5" d="
			M244.215,86.682c1.29-1.46,3.375-2.089,5.339-1.43c2.618,0.878,4.029,3.712,3.151,6.33l-12.879,38.397
			c-0.878,2.618-3.712,4.029-6.33,3.151c-2.618-0.879-4.029-3.713-3.151-6.331l10.703-31.91"/>
		
			<circle clip-path="url(#SVGID_16_)" fill="none" stroke="#063A7A" stroke-width="0.5" stroke-miterlimit="10" cx="235.086" cy="128.39" r="5.001"/>
		
			<path clip-path="url(#SVGID_16_)" fill="none" stroke="#063A7A" stroke-width="0.5" stroke-miterlimit="10" stroke-dasharray="1.5,1.5" d="
			M247.242,107.876l6.17,18.398c0.879,2.618,3.713,4.028,6.331,3.149c2.618-0.878,4.029-3.712,3.149-6.329l-10.38-30.949"/>
		
			<circle clip-path="url(#SVGID_16_)" fill="none" stroke="#063A7A" stroke-width="0.5" stroke-miterlimit="10" cx="258.153" cy="124.684" r="5"/>
		
			<path clip-path="url(#SVGID_16_)" fill="none" stroke="#063A7A" stroke-width="0.5" stroke-miterlimit="10" stroke-dasharray="1.5,1.5" d="
			M222.385,84.043L222.385,84.043c2.68,0.666,4.313,3.378,3.647,6.059L215.34,132.68c-0.666,2.681-3.378,4.313-6.058,3.647
			c-2.681-0.666-4.313-3.378-3.647-6.058l10.692-42.579C216.993,85.01,219.705,83.377,222.385,84.043z"/>
		
			<circle clip-path="url(#SVGID_16_)" fill="none" stroke="#063A7A" stroke-width="0.5" stroke-miterlimit="10" cx="210.487" cy="131.474" r="5.001"/>
		
			<polyline clip-path="url(#SVGID_16_)" fill="none" stroke="#063A7A" stroke-width="0.5" stroke-miterlimit="10" stroke-dasharray="1.5,1.5" points="
			181.149,58.75 181.149,53.75 151.364,30.558 		"/>
		
			<line clip-path="url(#SVGID_16_)" fill="none" stroke="#063A7A" stroke-miterlimit="10" x1="181.149" y1="104.688" x2="181.149" y2="58.751"/>
		
			<polyline clip-path="url(#SVGID_16_)" fill="none" stroke="#063A7A" stroke-width="0.5" stroke-miterlimit="10" stroke-dasharray="1.5,1.5" points="
			150.129,134.523 181.149,113.251 181.149,104.688 		"/>
		<polyline clip-path="url(#SVGID_16_)" fill="none" stroke="#063A7A" stroke-miterlimit="10" points="151.364,30.558 149.9,29.417 
			32.4,29.417 1.9,48.75 1.9,97.25 34.15,119.75 89.867,127.166 105.733,139.917 142.264,139.917 150.129,134.524 		"/>
		<polygon clip-path="url(#SVGID_16_)" fill="#9FA0A0" points="104.664,93.841 42.732,86.584 29.399,77.75 29.399,67.75 
			40.066,58.75 99.232,58.75 112.732,72.167 112.732,83.834 		"/>
		<polyline clip-path="url(#SVGID_16_)" fill="none" stroke="#063A7A" stroke-miterlimit="10" points="150.708,96.038 
			154.399,93.417 154.399,69.917 150.71,66.747 		"/>
		
			<polyline clip-path="url(#SVGID_16_)" fill="none" stroke="#063A7A" stroke-width="0.5" stroke-miterlimit="10" stroke-dasharray="1.5,1.5" points="
			120.154,104.688 138.524,104.688 150.708,96.038 		"/>
		<polyline clip-path="url(#SVGID_16_)" fill="none" stroke="#063A7A" stroke-miterlimit="10" points="120.149,58.75 40.066,58.75 
			29.4,67.75 29.4,77.75 42.733,86.583 106.733,94.083 116.65,104.688 120.154,104.688 		"/>
		
			<polyline clip-path="url(#SVGID_16_)" fill="none" stroke="#063A7A" stroke-width="0.5" stroke-miterlimit="10" stroke-dasharray="1.5,1.5" points="
			150.71,66.747 141.403,58.75 120.149,58.75 		"/>
		
			<line clip-path="url(#SVGID_16_)" fill="none" stroke="#063A7A" stroke-miterlimit="10" x1="120.149" y1="104.688" x2="120.149" y2="58.75"/>
		
			<line clip-path="url(#SVGID_16_)" fill="none" stroke="#063A7A" stroke-width="0.5" stroke-miterlimit="10" x1="38.436" y1="7.177" x2="38.61" y2="7.907"/>
		
			<path clip-path="url(#SVGID_16_)" fill="none" stroke="#063A7A" stroke-width="0.5" stroke-miterlimit="10" stroke-dasharray="1.509,1.509" d="
			M38.959,9.375l19.676,82.643c0.639,2.688,3.336,4.346,6.022,3.706c2.686-0.639,4.345-3.335,3.706-6.021L48.512,6.325"/>
		
			<line clip-path="url(#SVGID_16_)" fill="none" stroke="#063A7A" stroke-width="0.5" stroke-miterlimit="10" x1="48.337" y1="5.591" x2="48.164" y2="4.861"/>
		
			<circle clip-path="url(#SVGID_16_)" fill="none" stroke="#063A7A" stroke-width="0.5" stroke-miterlimit="10" cx="43.3" cy="6.02" r="5"/>
		
			<line clip-path="url(#SVGID_16_)" fill="none" stroke="#063A7A" stroke-width="0.5" stroke-miterlimit="10" x1="97.013" y1="6.908" x2="96.853" y2="7.641"/>
		
			<path clip-path="url(#SVGID_16_)" fill="none" stroke="#063A7A" stroke-width="0.5" stroke-miterlimit="10" stroke-dasharray="1.509,1.509" d="
			M96.531,9.114L78.386,92.107c-0.59,2.698-3.255,4.406-5.953,3.817c-2.697-0.59-4.406-3.255-3.816-5.953l18.306-83.73"/>
		
			<line clip-path="url(#SVGID_16_)" fill="none" stroke="#063A7A" stroke-width="0.5" stroke-miterlimit="10" x1="87.083" y1="5.504" x2="87.244" y2="4.771"/>
		
			<circle clip-path="url(#SVGID_16_)" fill="none" stroke="#063A7A" stroke-width="0.5" stroke-miterlimit="10" cx="92.129" cy="5.84" r="5"/>
		
			<path clip-path="url(#SVGID_16_)" fill="none" stroke="#063A7A" stroke-width="0.5" stroke-miterlimit="10" stroke-dasharray="1.5,1.5" d="
			M57.375,86.682c-1.29-1.46-3.375-2.089-5.339-1.43c-2.618,0.878-4.029,3.712-3.151,6.33l12.879,38.397
			c0.878,2.618,3.712,4.029,6.33,3.151c2.618-0.879,4.029-3.713,3.151-6.331L60.542,94.89"/>
		
			<circle clip-path="url(#SVGID_16_)" fill="none" stroke="#063A7A" stroke-width="0.5" stroke-miterlimit="10" cx="66.505" cy="128.39" r="5"/>
		
			<path clip-path="url(#SVGID_16_)" fill="none" stroke="#063A7A" stroke-width="0.5" stroke-miterlimit="10" stroke-dasharray="1.5,1.5" d="
			M54.349,107.876l-6.17,18.398c-0.879,2.618-3.713,4.028-6.331,3.149c-2.618-0.878-4.029-3.712-3.15-6.329l10.38-30.949"/>
		
			<circle clip-path="url(#SVGID_16_)" fill="none" stroke="#063A7A" stroke-width="0.5" stroke-miterlimit="10" cx="43.438" cy="124.684" r="5"/>
		
			<path clip-path="url(#SVGID_16_)" fill="none" stroke="#063A7A" stroke-width="0.5" stroke-miterlimit="10" stroke-dasharray="1.5,1.5" d="
			M79.206,84.043L79.206,84.043c-2.68,0.666-4.313,3.378-3.647,6.059L86.25,132.68c0.666,2.681,3.378,4.313,6.058,3.647
			c2.68-0.666,4.313-3.378,3.647-6.058L85.264,87.69C84.598,85.01,81.886,83.377,79.206,84.043z"/>
		
			<circle clip-path="url(#SVGID_16_)" fill="none" stroke="#063A7A" stroke-width="0.5" stroke-miterlimit="10" cx="91.103" cy="131.474" r="5.001"/>
	</g>
</g>
</svg>
